<?xml version="1.0" standalone="no"?>
<!DOCTYPE svg PUBLIC "-//W3C//DTD SVG 20010904//EN"
 "http://www.w3.org/TR/2001/REC-SVG-20010904/DTD/svg10.dtd">
<svg version="1.0" xmlns="http://www.w3.org/2000/svg"
 width="500.000000pt" height="500.000000pt" viewBox="0 0 500.000000 500.000000"
 preserveAspectRatio="xMidYMid meet">

<g transform="translate(0.000000,500.000000) scale(0.100000,-0.100000)"
fill="#000000" stroke="none">
<path d="M2574 4240 c-19 -6 -259 -207 -592 -495 l-561 -485 -518 0 c-321 0
-532 -4 -555 -10 -44 -13 -93 -66 -107 -117 -15 -54 -15 -1304 0 -1358 14 -50
64 -100 114 -114 27 -7 210 -11 546 -11 l507 0 543 -471 c299 -259 560 -482
580 -495 75 -51 173 -37 227 34 l27 35 3 1685 c2 1553 1 1686 -14 1719 -32 67
-126 105 -200 83z"/>
<path d="M4030 4211 c-67 -35 -103 -119 -81 -189 6 -21 38 -73 71 -117 251
-332 410 -726 472 -1170 19 -137 16 -485 -6 -630 -64 -427 -225 -807 -499
-1173 -28 -38 -32 -52 -32 -105 0 -74 25 -116 85 -147 48 -24 87 -25 141 -3
34 13 56 36 119 121 367 494 554 1093 537 1717 -11 380 -84 710 -233 1049
-109 249 -332 594 -417 646 -41 25 -111 26 -157 1z"/>
<path d="M3615 3785 c-48 -17 -92 -66 -101 -113 -12 -64 1 -105 71 -208 338
-502 406 -1142 180 -1705 -53 -131 -92 -205 -182 -341 -77 -118 -86 -160 -51
-228 31 -61 77 -90 142 -90 31 0 65 7 86 18 80 43 280 399 360 642 179 544
137 1137 -117 1644 -116 231 -213 364 -281 384 -49 15 -57 15 -107 -3z"/>
<path d="M3134 3311 c-54 -24 -86 -71 -92 -132 -5 -52 7 -91 46 -151 13 -20
41 -78 63 -128 144 -333 120 -735 -62 -1042 -51 -87 -58 -138 -27 -198 31 -60
77 -90 140 -90 97 0 135 36 222 209 50 98 112 285 131 395 57 330 9 648 -143
954 -90 182 -168 233 -278 183z"/>
</g>
</svg>
